<svg xmlns="http://www.w3.org/2000/svg" width="1000" height="255" viewBox="0 0 1000 255" role="img" aria-labelledby="title"><title id="title">Last 365 days of GitHub contributions</title><g font-family="Segoe UI,Helvetica,Arial,sans-serif"><rect x="0" y="0" width="1000" height="255" rx="16" fill="#0d1117"/><text x="30" y="39" font-size="23" fill="#e6edf3" font-weight="600">Contribution activity</text><text x="30" y="63" font-size="13" fill="#8b949e" font-weight="400">Waiting for first workflow run</text><g><title>2025-10-06: awaiting data</title><rect x="65" y="114" width="13" height="13" rx="3" fill="#161b22"/></g><g><title>2025-10-07: awaiting data</title><rect x="65" y="130" width="13" height="13" rx="3" fill="#161b22"/></g><g><title>2025-10-08: awaiting data</title><rect x="65" y="146" width="13" height="13" rx="3" fill="#161b22"/></g><g><title>2025-10-09: awaiting data</title><rect x="65" y="162" width="13" height="13" rx="3" fill="#161b22"/></g><g><title>2025-10-10: awaiting data</title><rect x="65" y="178" width="13" height="13" rx="3" fill="#161b22"/></g><g><title>2025-10-11: awaiting data</title><rect x="65" y="194" width="13" height="13" rx="3" fill="#161b22"/></g><g><title>2025-10-12: awaiting data</title><rect x="81" y="98" width="13" height="13" rx="3" fill="#161b22"/></g><g><title>2025-10-13: awaiting data</title><rect x="81" y="114" width="13" height="13" rx="3" fill="#161b22"/></g><g><title>2025-10-14: awaiting data</title><rect x="81" y="130" width="13" height="13" rx="3" fill="#161b22"/></g><g><title>2025-10-15: awaiting data</title><rect x="81" y="146" width="13" height="13" rx="3" fill="#161b22"/></g><g><title>2025-10-16: awaiting data</title><rect x="81" y="162" width="13" height="13" rx="3" fill="#161b22"/></g><g><title>2025-10-17: awaiting data</title><rect x="81" y="178" width="13" height="13" rx="3" fill="#161b22"/></g><g><title>2025-10-18: awaiting data</title><rect x="81" y="194" width="13" height="13" rx="3" fill="#161b22"/></g><g><title>2025-10-19: awaiting data</title><rect x="97" y="98" width="13" height="13" rx="3" fill="#161b22"/></g><g><title>2025-10-20: awaiting data</title><rect x="97" y="114" width="13" height="13" rx="3" fill="#161b22"/></g><g><title>2025-10-21: awaiting data</title><rect x="97" y="130" width="13" height="13" rx="3" fill="#161b22"/></g><g><title>2025-10-22: awaiting data</title><rect x="97" y="146" width="13" height="13" rx="3" fill="#161b22"/></g><g><title>2025-10-23: awaiting data</title><rect x="97" y="162" width="13" height="13" rx="3" fill="#161b22"/></g><g><title>2025-10-24: awaiting data</title><rect x="97" y="178" width="13" height="13" rx="3" fill="#161b22"/></g><g><title>2025-10-25: awaiting data</title><rect x="97" y="194" width="13" height="13" rx="3" fill="#161b22"/></g><g><title>2025-10-26: awaiting data</title><rect x="113" y="98" width="13" height="13" rx="3" fill="#161b22"/></g><g><title>2025-10-27: awaiting data</title><rect x="113" y="114" width="13" height="13" rx="3" fill="#161b22"/></g><g><title>2025-10-28: awaiting data</title><rect x="113" y="130" width="13" height="13" rx="3" fill="#161b22"/></g><g><title>2025-10-29: awaiting data</title><rect x="113" y="146" width="13" height="13" rx="3" fill="#161b22"/></g><g><title>2025-10-30: awaiting data</title><rect x="113" y="162" width="13" height="13" rx="3" fill="#161b22"/></g><g><title>2025-10-31: awaiting data</title><rect x="113" y="178" width="13" height="13" rx="3" fill="#161b22"/></g><text x="113" y="87" font-size="11" fill="#8b949e" font-weight="400">Nov</text><g><title>2025-11-01: awaiting data</title><rect x="113" y="194" width="13" height="13" rx="3" fill="#161b22"/></g><g><title>2025-11-02: awaiting data</title><rect x="129" y="98" width="13" height="13" rx="3" fill="#161b22"/></g><g><title>2025-11-03: awaiting data</title><rect x="129" y="114" width="13" height="13" rx="3" fill="#161b22"/></g><g><title>2025-11-04: awaiting data</title><rect x="129" y="130" width="13" height="13" rx="3" fill="#161b22"/></g><g><title>2025-11-05: awaiting data</title><rect x="129" y="146" width="13" height="13" rx="3" fill="#161b22"/></g><g><title>2025-11-06: awaiting data</title><rect x="129" y="162" width="13" height="13" rx="3" fill="#161b22"/></g><g><title>2025-11-07: awaiting data</title><rect x="129" y="178" width="13" height="13" rx="3" fill="#161b22"/></g><g><title>2025-11-08: awaiting data</title><rect x="129" y="194" width="13" height="13" rx="3" fill="#161b22"/></g><g><title>2025-11-09: awaiting data</title><rect x="145" y="98" width="13" height="13" rx="3" fill="#161b22"/></g><g><title>2025-11-10: awaiting data</title><rect x="145" y="114" width="13" height="13" rx="3" fill="#161b22"/></g><g><title>2025-11-11: awaiting data</title><rect x="145" y="130" width="13" height="13" rx="3" fill="#161b22"/></g><g><title>2025-11-12: awaiting data</title><rect x="145" y="146" width="13" height="13" rx="3" fill="#161b22"/></g><g><title>2025-11-13: awaiting data</title><rect x="145" y="162" width="13" height="13" rx="3" fill="#161b22"/></g><g><title>2025-11-14: awaiting data</title><rect x="145" y="178" width="13" height="13" rx="3" fill="#161b22"/></g><g><title>2025-11-15: awaiting data</title><rect x="145" y="194" width="13" height="13" rx="3" fill="#161b22"/></g><g><title>2025-11-16: awaiting data</title><rect x="161" y="98" width="13" height="13" rx="3" fill="#161b22"/></g><g><title>2025-11-17: awaiting data</title><rect x="161" y="114" width="13" height="13" rx="3" fill="#161b22"/></g><g><title>2025-11-18: awaiting data</title><rect x="161" y="130" width="13" height="13" rx="3" fill="#161b22"/></g><g><title>2025-11-19: awaiting data</title><rect x="161" y="146" width="13" height="13" rx="3" fill="#161b22"/></g><g><title>2025-11-20: awaiting data</title><rect x="161" y="162" width="13" height="13" rx="3" fill="#161b22"/></g><g><title>2025-11-21: awaiting data</title><rect x="161" y="178" width="13" height="13" rx="3" fill="#161b22"/></g><g><title>2025-11-22: awaiting data</title><rect x="161" y="194" width="13" height="13" rx="3" fill="#161b22"/></g><g><title>2025-11-23: awaiting data</title><rect x="177" y="98" width="13" height="13" rx="3" fill="#161b22"/></g><g><title>2025-11-24: awaiting data</title><rect x="177" y="114" width="13" height="13" rx="3" fill="#161b22"/></g><g><title>2025-11-25: awaiting data</title><rect x="177" y="130" width="13" height="13" rx="3" fill="#161b22"/></g><g><title>2025-11-26: awaiting data</title><rect x="177" y="146" width="13" height="13" rx="3" fill="#161b22"/></g><g><title>2025-11-27: awaiting data</title><rect x="177" y="162" width="13" height="13" rx="3" fill="#161b22"/></g><g><title>2025-11-28: awaiting data</title><rect x="177" y="178" width="13" height="13" rx="3" fill="#161b22"/></g><g><title>2025-11-29: awaiting data</title><rect x="177" y="194" width="13" height="13" rx="3" fill="#161b22"/></g><g><title>2025-11-30: awaiting data</title><rect x="193" y="98" width="13" height="13" rx="3" fill="#161b22"/></g><text x="193" y="87" font-size="11" fill="#8b949e" font-weight="400">Dec</text><g><title>2025-12-01: awaiting data</title><rect x="193" y="114" width="13" height="13" rx="3" fill="#161b22"/></g><g><title>2025-12-02: awaiting data</title><rect x="193" y="130" width="13" height="13" rx="3" fill="#161b22"/></g><g><title>2025-12-03: awaiting data</title><rect x="193" y="146" width="13" height="13" rx="3" fill="#161b22"/></g><g><title>2025-12-04: awaiting data</title><rect x="193" y="162" width="13" height="13" rx="3" fill="#161b22"/></g><g><title>2025-12-05: awaiting data</title><rect x="193" y="178" width="13" height="13" rx="3" fill="#161b22"/></g><g><title>2025-12-06: awaiting data</title><rect x="193" y="194" width="13" height="13" rx="3" fill="#161b22"/></g><g><title>2025-12-07: awaiting data</title><rect x="209" y="98" width="13" height="13" rx="3" fill="#161b22"/></g><g><title>2025-12-08: awaiting data</title><rect x="209" y="114" width="13" height="13" rx="3" fill="#161b22"/></g><g><title>2025-12-09: awaiting data</title><rect x="209" y="130" width="13" height="13" rx="3" fill="#161b22"/></g><g><title>2025-12-10: awaiting data</title><rect x="209" y="146" width="13" height="13" rx="3" fill="#161b22"/></g><g><title>2025-12-11: awaiting data</title><rect x="209" y="162" width="13" height="13" rx="3" fill="#161b22"/></g><g><title>2025-12-12: awaiting data</title><rect x="209" y="178" width="13" height="13" rx="3" fill="#161b22"/></g><g><title>2025-12-13: awaiting data</title><rect x="209" y="194" width="13" height="13" rx="3" fill="#161b22"/></g><g><title>2025-12-14: awaiting data</title><rect x="225" y="98" width="13" height="13" rx="3" fill="#161b22"/></g><g><title>2025-12-15: awaiting data</title><rect x="225" y="114" width="13" height="13" rx="3" fill="#161b22"/></g><g><title>2025-12-16: awaiting data</title><rect x="225" y="130" width="13" height="13" rx="3" fill="#161b22"/></g><g><title>2025-12-17: awaiting data</title><rect x="225" y="146" width="13" height="13" rx="3" fill="#161b22"/></g><g><title>2025-12-18: awaiting data</title><rect x="225" y="162" width="13" height="13" rx="3" fill="#161b22"/></g><g><title>2025-12-19: awaiting data</title><rect x="225" y="178" width="13" height="13" rx="3" fill="#161b22"/></g><g><title>2025-12-20: awaiting data</title><rect x="225" y="194" width="13" height="13" rx="3" fill="#161b22"/></g><g><title>2025-12-21: awaiting data</title><rect x="241" y="98" width="13" height="13" rx="3" fill="#161b22"/></g><g><title>2025-12-22: awaiting data</title><rect x="241" y="114" width="13" height="13" rx="3" fill="#161b22"/></g><g><title>2025-12-23: awaiting data</title><rect x="241" y="130" width="13" height="13" rx="3" fill="#161b22"/></g><g><title>2025-12-24: awaiting data</title><rect x="241" y="146" width="13" height="13" rx="3" fill="#161b22"/></g><g><title>2025-12-25: awaiting data</title><rect x="241" y="162" width="13" height="13" rx="3" fill="#161b22"/></g><g><title>2025-12-26: awaiting data</title><rect x="241" y="178" width="13" height="13" rx="3" fill="#161b22"/></g><g><title>2025-12-27: awaiting data</title><rect x="241" y="194" width="13" height="13" rx="3" fill="#161b22"/></g><g><title>2025-12-28: awaiting data</title><rect x="257" y="98" width="13" height="13" rx="3" fill="#161b22"/></g><g><title>2025-12-29: awaiting data</title><rect x="257" y="114" width="13" height="13" rx="3" fill="#161b22"/></g><g><title>2025-12-30: awaiting data</title><rect x="257" y="130" width="13" height="13" rx="3" fill="#161b22"/></g><g><title>2025-12-31: awaiting data</title><rect x="257" y="146" width="13" height="13" rx="3" fill="#161b22"/></g><text x="257" y="87" font-size="11" fill="#8b949e" font-weight="400">Jan</text><g><title>2026-01-01: awaiting data</title><rect x="257" y="162" width="13" height="13" rx="3" fill="#161b22"/></g><g><title>2026-01-02: awaiting data</title><rect x="257" y="178" width="13" height="13" rx="3" fill="#161b22"/></g><g><title>2026-01-03: awaiting data</title><rect x="257" y="194" width="13" height="13" rx="3" fill="#161b22"/></g><g><title>2026-01-04: awaiting data</title><rect x="273" y="98" width="13" height="13" rx="3" fill="#161b22"/></g><g><title>2026-01-05: awaiting data</title><rect x="273" y="114" width="13" height="13" rx="3" fill="#161b22"/></g><g><title>2026-01-06: awaiting data</title><rect x="273" y="130" width="13" height="13" rx="3" fill="#161b22"/></g><g><title>2026-01-07: awaiting data</title><rect x="273" y="146" width="13" height="13" rx="3" fill="#161b22"/></g><g><title>2026-01-08: awaiting data</title><rect x="273" y="162" width="13" height="13" rx="3" fill="#161b22"/></g><g><title>2026-01-09: awaiting data</title><rect x="273" y="178" width="13" height="13" rx="3" fill="#161b22"/></g><g><title>2026-01-10: awaiting data</title><rect x="273" y="194" width="13" height="13" rx="3" fill="#161b22"/></g><g><title>2026-01-11: awaiting data</title><rect x="289" y="98" width="13" height="13" rx="3" fill="#161b22"/></g><g><title>2026-01-12: awaiting data</title><rect x="289" y="114" width="13" height="13" rx="3" fill="#161b22"/></g><g><title>2026-01-13: awaiting data</title><rect x="289" y="130" width="13" height="13" rx="3" fill="#161b22"/></g><g><title>2026-01-14: awaiting data</title><rect x="289" y="146" width="13" height="13" rx="3" fill="#161b22"/></g><g><title>2026-01-15: awaiting data</title><rect x="289" y="162" width="13" height="13" rx="3" fill="#161b22"/></g><g><title>2026-01-16: awaiting data</title><rect x="289" y="178" width="13" height="13" rx="3" fill="#161b22"/></g><g><title>2026-01-17: awaiting data</title><rect x="289" y="194" width="13" height="13" rx="3" fill="#161b22"/></g><g><title>2026-01-18: awaiting data</title><rect x="305" y="98" width="13" height="13" rx="3" fill="#161b22"/></g><g><title>2026-01-19: awaiting data</title><rect x="305" y="114" width="13" height="13" rx="3" fill="#161b22"/></g><g><title>2026-01-20: awaiting data</title><rect x="305" y="130" width="13" height="13" rx="3" fill="#161b22"/></g><g><title>2026-01-21: awaiting data</title><rect x="305" y="146" width="13" height="13" rx="3" fill="#161b22"/></g><g><title>2026-01-22: awaiting data</title><rect x="305" y="162" width="13" height="13" rx="3" fill="#161b22"/></g><g><title>2026-01-23: awaiting data</title><rect x="305" y="178" width="13" height="13" rx="3" fill="#161b22"/></g><g><title>2026-01-24: awaiting data</title><rect x="305" y="194" width="13" height="13" rx="3" fill="#161b22"/></g><g><title>2026-01-25: awaiting data</title><rect x="321" y="98" width="13" height="13" rx="3" fill="#161b22"/></g><g><title>2026-01-26: awaiting data</title><rect x="321" y="114" width="13" height="13" rx="3" fill="#161b22"/></g><g><title>2026-01-27: awaiting data</title><rect x="321" y="130" width="13" height="13" rx="3" fill="#161b22"/></g><g><title>2026-01-28: awaiting data</title><rect x="321" y="146" width="13" height="13" rx="3" fill="#161b22"/></g><g><title>2026-01-29: awaiting data</title><rect x="321" y="162" width="13" height="13" rx="3" fill="#161b22"/></g><g><title>2026-01-30: awaiting data</title><rect x="321" y="178" width="13" height="13" rx="3" fill="#161b22"/></g><g><title>2026-01-31: awaiting data</title><rect x="321" y="194" width="13" height="13" rx="3" fill="#161b22"/></g><text x="337" y="87" font-size="11" fill="#8b949e" font-weight="400">Feb</text><g><title>2026-02-01: awaiting data</title><rect x="337" y="98" width="13" height="13" rx="3" fill="#161b22"/></g><g><title>2026-02-02: awaiting data</title><rect x="337" y="114" width="13" height="13" rx="3" fill="#161b22"/></g><g><title>2026-02-03: awaiting data</title><rect x="337" y="130" width="13" height="13" rx="3" fill="#161b22"/></g><g><title>2026-02-04: awaiting data</title><rect x="337" y="146" width="13" height="13" rx="3" fill="#161b22"/></g><g><title>2026-02-05: awaiting data</title><rect x="337" y="162" width="13" height="13" rx="3" fill="#161b22"/></g><g><title>2026-02-06: awaiting data</title><rect x="337" y="178" width="13" height="13" rx="3" fill="#161b22"/></g><g><title>2026-02-07: awaiting data</title><rect x="337" y="194" width="13" height="13" rx="3" fill="#161b22"/></g><g><title>2026-02-08: awaiting data</title><rect x="353" y="98" width="13" height="13" rx="3" fill="#161b22"/></g><g><title>2026-02-09: awaiting data</title><rect x="353" y="114" width="13" height="13" rx="3" fill="#161b22"/></g><g><title>2026-02-10: awaiting data</title><rect x="353" y="130" width="13" height="13" rx="3" fill="#161b22"/></g><g><title>2026-02-11: awaiting data</title><rect x="353" y="146" width="13" height="13" rx="3" fill="#161b22"/></g><g><title>2026-02-12: awaiting data</title><rect x="353" y="162" width="13" height="13" rx="3" fill="#161b22"/></g><g><title>2026-02-13: awaiting data</title><rect x="353" y="178" width="13" height="13" rx="3" fill="#161b22"/></g><g><title>2026-02-14: awaiting data</title><rect x="353" y="194" width="13" height="13" rx="3" fill="#161b22"/></g><g><title>2026-02-15: awaiting data</title><rect x="369" y="98" width="13" height="13" rx="3" fill="#161b22"/></g><g><title>2026-02-16: awaiting data</title><rect x="369" y="114" width="13" height="13" rx="3" fill="#161b22"/></g><g><title>2026-02-17: awaiting data</title><rect x="369" y="130" width="13" height="13" rx="3" fill="#161b22"/></g><g><title>2026-02-18: awaiting data</title><rect x="369" y="146" width="13" height="13" rx="3" fill="#161b22"/></g><g><title>2026-02-19: awaiting data</title><rect x="369" y="162" width="13" height="13" rx="3" fill="#161b22"/></g><g><title>2026-02-20: awaiting data</title><rect x="369" y="178" width="13" height="13" rx="3" fill="#161b22"/></g><g><title>2026-02-21: awaiting data</title><rect x="369" y="194" width="13" height="13" rx="3" fill="#161b22"/></g><g><title>2026-02-22: awaiting data</title><rect x="385" y="98" width="13" height="13" rx="3" fill="#161b22"/></g><g><title>2026-02-23: awaiting data</title><rect x="385" y="114" width="13" height="13" rx="3" fill="#161b22"/></g><g><title>2026-02-24: awaiting data</title><rect x="385" y="130" width="13" height="13" rx="3" fill="#161b22"/></g><g><title>2026-02-25: awaiting data</title><rect x="385" y="146" width="13" height="13" rx="3" fill="#161b22"/></g><g><title>2026-02-26: awaiting data</title><rect x="385" y="162" width="13" height="13" rx="3" fill="#161b22"/></g><g><title>2026-02-27: awaiting data</title><rect x="385" y="178" width="13" height="13" rx="3" fill="#161b22"/></g><g><title>2026-02-28: awaiting data</title><rect x="385" y="194" width="13" height="13" rx="3" fill="#161b22"/></g><text x="401" y="87" font-size="11" fill="#8b949e" font-weight="400">Mar</text><g><title>2026-03-01: awaiting data</title><rect x="401" y="98" width="13" height="13" rx="3" fill="#161b22"/></g><g><title>2026-03-02: awaiting data</title><rect x="401" y="114" width="13" height="13" rx="3" fill="#161b22"/></g><g><title>2026-03-03: awaiting data</title><rect x="401" y="130" width="13" height="13" rx="3" fill="#161b22"/></g><g><title>2026-03-04: awaiting data</title><rect x="401" y="146" width="13" height="13" rx="3" fill="#161b22"/></g><g><title>2026-03-05: awaiting data</title><rect x="401" y="162" width="13" height="13" rx="3" fill="#161b22"/></g><g><title>2026-03-06: awaiting data</title><rect x="401" y="178" width="13" height="13" rx="3" fill="#161b22"/></g><g><title>2026-03-07: awaiting data</title><rect x="401" y="194" width="13" height="13" rx="3" fill="#161b22"/></g><g><title>2026-03-08: awaiting data</title><rect x="417" y="98" width="13" height="13" rx="3" fill="#161b22"/></g><g><title>2026-03-09: awaiting data</title><rect x="417" y="114" width="13" height="13" rx="3" fill="#161b22"/></g><g><title>2026-03-10: awaiting data</title><rect x="417" y="130" width="13" height="13" rx="3" fill="#161b22"/></g><g><title>2026-03-11: awaiting data</title><rect x="417" y="146" width="13" height="13" rx="3" fill="#161b22"/></g><g><title>2026-03-12: awaiting data</title><rect x="417" y="162" width="13" height="13" rx="3" fill="#161b22"/></g><g><title>2026-03-13: awaiting data</title><rect x="417" y="178" width="13" height="13" rx="3" fill="#161b22"/></g><g><title>2026-03-14: awaiting data</title><rect x="417" y="194" width="13" height="13" rx="3" fill="#161b22"/></g><g><title>2026-03-15: awaiting data</title><rect x="433" y="98" width="13" height="13" rx="3" fill="#161b22"/></g><g><title>2026-03-16: awaiting data</title><rect x="433" y="114" width="13" height="13" rx="3" fill="#161b22"/></g><g><title>2026-03-17: awaiting data</title><rect x="433" y="130" width="13" height="13" rx="3" fill="#161b22"/></g><g><title>2026-03-18: awaiting data</title><rect x="433" y="146" width="13" height="13" rx="3" fill="#161b22"/></g><g><title>2026-03-19: awaiting data</title><rect x="433" y="162" width="13" height="13" rx="3" fill="#161b22"/></g><g><title>2026-03-20: awaiting data</title><rect x="433" y="178" width="13" height="13" rx="3" fill="#161b22"/></g><g><title>2026-03-21: awaiting data</title><rect x="433" y="194" width="13" height="13" rx="3" fill="#161b22"/></g><g><title>2026-03-22: awaiting data</title><rect x="449" y="98" width="13" height="13" rx="3" fill="#161b22"/></g><g><title>2026-03-23: awaiting data</title><rect x="449" y="114" width="13" height="13" rx="3" fill="#161b22"/></g><g><title>2026-03-24: awaiting data</title><rect x="449" y="130" width="13" height="13" rx="3" fill="#161b22"/></g><g><title>2026-03-25: awaiting data</title><rect x="449" y="146" width="13" height="13" rx="3" fill="#161b22"/></g><g><title>2026-03-26: awaiting data</title><rect x="449" y="162" width="13" height="13" rx="3" fill="#161b22"/></g><g><title>2026-03-27: awaiting data</title><rect x="449" y="178" width="13" height="13" rx="3" fill="#161b22"/></g><g><title>2026-03-28: awaiting data</title><rect x="449" y="194" width="13" height="13" rx="3" fill="#161b22"/></g><g><title>2026-03-29: awaiting data</title><rect x="465" y="98" width="13" height="13" rx="3" fill="#161b22"/></g><g><title>2026-03-30: awaiting data</title><rect x="465" y="114" width="13" height="13" rx="3" fill="#161b22"/></g><g><title>2026-03-31: awaiting data</title><rect x="465" y="130" width="13" height="13" rx="3" fill="#161b22"/></g><text x="465" y="87" font-size="11" fill="#8b949e" font-weight="400">Apr</text><g><title>2026-04-01: awaiting data</title><rect x="465" y="146" width="13" height="13" rx="3" fill="#161b22"/></g><g><title>2026-04-02: awaiting data</title><rect x="465" y="162" width="13" height="13" rx="3" fill="#161b22"/></g><g><title>2026-04-03: awaiting data</title><rect x="465" y="178" width="13" height="13" rx="3" fill="#161b22"/></g><g><title>2026-04-04: awaiting data</title><rect x="465" y="194" width="13" height="13" rx="3" fill="#161b22"/></g><g><title>2026-04-05: awaiting data</title><rect x="481" y="98" width="13" height="13" rx="3" fill="#161b22"/></g><g><title>2026-04-06: awaiting data</title><rect x="481" y="114" width="13" height="13" rx="3" fill="#161b22"/></g><g><title>2026-04-07: awaiting data</title><rect x="481" y="130" width="13" height="13" rx="3" fill="#161b22"/></g><g><title>2026-04-08: awaiting data</title><rect x="481" y="146" width="13" height="13" rx="3" fill="#161b22"/></g><g><title>2026-04-09: awaiting data</title><rect x="481" y="162" width="13" height="13" rx="3" fill="#161b22"/></g><g><title>2026-04-10: awaiting data</title><rect x="481" y="178" width="13" height="13" rx="3" fill="#161b22"/></g><g><title>2026-04-11: awaiting data</title><rect x="481" y="194" width="13" height="13" rx="3" fill="#161b22"/></g><g><title>2026-04-12: awaiting data</title><rect x="497" y="98" width="13" height="13" rx="3" fill="#161b22"/></g><g><title>2026-04-13: awaiting data</title><rect x="497" y="114" width="13" height="13" rx="3" fill="#161b22"/></g><g><title>2026-04-14: awaiting data</title><rect x="497" y="130" width="13" height="13" rx="3" fill="#161b22"/></g><g><title>2026-04-15: awaiting data</title><rect x="497" y="146" width="13" height="13" rx="3" fill="#161b22"/></g><g><title>2026-04-16: awaiting data</title><rect x="497" y="162" width="13" height="13" rx="3" fill="#161b22"/></g><g><title>2026-04-17: awaiting data</title><rect x="497" y="178" width="13" height="13" rx="3" fill="#161b22"/></g><g><title>2026-04-18: awaiting data</title><rect x="497" y="194" width="13" height="13" rx="3" fill="#161b22"/></g><g><title>2026-04-19: awaiting data</title><rect x="513" y="98" width="13" height="13" rx="3" fill="#161b22"/></g><g><title>2026-04-20: awaiting data</title><rect x="513" y="114" width="13" height="13" rx="3" fill="#161b22"/></g><g><title>2026-04-21: awaiting data</title><rect x="513" y="130" width="13" height="13" rx="3" fill="#161b22"/></g><g><title>2026-04-22: awaiting data</title><rect x="513" y="146" width="13" height="13" rx="3" fill="#161b22"/></g><g><title>2026-04-23: awaiting data</title><rect x="513" y="162" width="13" height="13" rx="3" fill="#161b22"/></g><g><title>2026-04-24: awaiting data</title><rect x="513" y="178" width="13" height="13" rx="3" fill="#161b22"/></g><g><title>2026-04-25: awaiting data</title><rect x="513" y="194" width="13" height="13" rx="3" fill="#161b22"/></g><g><title>2026-04-26: awaiting data</title><rect x="529" y="98" width="13" height="13" rx="3" fill="#161b22"/></g><g><title>2026-04-27: awaiting data</title><rect x="529" y="114" width="13" height="13" rx="3" fill="#161b22"/></g><g><title>2026-04-28: awaiting data</title><rect x="529" y="130" width="13" height="13" rx="3" fill="#161b22"/></g><g><title>2026-04-29: awaiting data</title><rect x="529" y="146" width="13" height="13" rx="3" fill="#161b22"/></g><g><title>2026-04-30: awaiting data</title><rect x="529" y="162" width="13" height="13" rx="3" fill="#161b22"/></g><text x="529" y="87" font-size="11" fill="#8b949e" font-weight="400">May</text><g><title>2026-05-01: awaiting data</title><rect x="529" y="178" width="13" height="13" rx="3" fill="#161b22"/></g><g><title>2026-05-02: awaiting data</title><rect x="529" y="194" width="13" height="13" rx="3" fill="#161b22"/></g><g><title>2026-05-03: awaiting data</title><rect x="545" y="98" width="13" height="13" rx="3" fill="#161b22"/></g><g><title>2026-05-04: awaiting data</title><rect x="545" y="114" width="13" height="13" rx="3" fill="#161b22"/></g><g><title>2026-05-05: awaiting data</title><rect x="545" y="130" width="13" height="13" rx="3" fill="#161b22"/></g><g><title>2026-05-06: awaiting data</title><rect x="545" y="146" width="13" height="13" rx="3" fill="#161b22"/></g><g><title>2026-05-07: awaiting data</title><rect x="545" y="162" width="13" height="13" rx="3" fill="#161b22"/></g><g><title>2026-05-08: awaiting data</title><rect x="545" y="178" width="13" height="13" rx="3" fill="#161b22"/></g><g><title>2026-05-09: awaiting data</title><rect x="545" y="194" width="13" height="13" rx="3" fill="#161b22"/></g><g><title>2026-05-10: awaiting data</title><rect x="561" y="98" width="13" height="13" rx="3" fill="#161b22"/></g><g><title>2026-05-11: awaiting data</title><rect x="561" y="114" width="13" height="13" rx="3" fill="#161b22"/></g><g><title>2026-05-12: awaiting data</title><rect x="561" y="130" width="13" height="13" rx="3" fill="#161b22"/></g><g><title>2026-05-13: awaiting data</title><rect x="561" y="146" width="13" height="13" rx="3" fill="#161b22"/></g><g><title>2026-05-14: awaiting data</title><rect x="561" y="162" width="13" height="13" rx="3" fill="#161b22"/></g><g><title>2026-05-15: awaiting data</title><rect x="561" y="178" width="13" height="13" rx="3" fill="#161b22"/></g><g><title>2026-05-16: awaiting data</title><rect x="561" y="194" width="13" height="13" rx="3" fill="#161b22"/></g><g><title>2026-05-17: awaiting data</title><rect x="577" y="98" width="13" height="13" rx="3" fill="#161b22"/></g><g><title>2026-05-18: awaiting data</title><rect x="577" y="114" width="13" height="13" rx="3" fill="#161b22"/></g><g><title>2026-05-19: awaiting data</title><rect x="577" y="130" width="13" height="13" rx="3" fill="#161b22"/></g><g><title>2026-05-20: awaiting data</title><rect x="577" y="146" width="13" height="13" rx="3" fill="#161b22"/></g><g><title>2026-05-21: awaiting data</title><rect x="577" y="162" width="13" height="13" rx="3" fill="#161b22"/></g><g><title>2026-05-22: awaiting data</title><rect x="577" y="178" width="13" height="13" rx="3" fill="#161b22"/></g><g><title>2026-05-23: awaiting data</title><rect x="577" y="194" width="13" height="13" rx="3" fill="#161b22"/></g><g><title>2026-05-24: awaiting data</title><rect x="593" y="98" width="13" height="13" rx="3" fill="#161b22"/></g><g><title>2026-05-25: awaiting data</title><rect x="593" y="114" width="13" height="13" rx="3" fill="#161b22"/></g><g><title>2026-05-26: awaiting data</title><rect x="593" y="130" width="13" height="13" rx="3" fill="#161b22"/></g><g><title>2026-05-27: awaiting data</title><rect x="593" y="146" width="13" height="13" rx="3" fill="#161b22"/></g><g><title>2026-05-28: awaiting data</title><rect x="593" y="162" width="13" height="13" rx="3" fill="#161b22"/></g><g><title>2026-05-29: awaiting data</title><rect x="593" y="178" width="13" height="13" rx="3" fill="#161b22"/></g><g><title>2026-05-30: awaiting data</title><rect x="593" y="194" width="13" height="13" rx="3" fill="#161b22"/></g><g><title>2026-05-31: awaiting data</title><rect x="609" y="98" width="13" height="13" rx="3" fill="#161b22"/></g><text x="609" y="87" font-size="11" fill="#8b949e" font-weight="400">Jun</text><g><title>2026-06-01: awaiting data</title><rect x="609" y="114" width="13" height="13" rx="3" fill="#161b22"/></g><g><title>2026-06-02: awaiting data</title><rect x="609" y="130" width="13" height="13" rx="3" fill="#161b22"/></g><g><title>2026-06-03: awaiting data</title><rect x="609" y="146" width="13" height="13" rx="3" fill="#161b22"/></g><g><title>2026-06-04: awaiting data</title><rect x="609" y="162" width="13" height="13" rx="3" fill="#161b22"/></g><g><title>2026-06-05: awaiting data</title><rect x="609" y="178" width="13" height="13" rx="3" fill="#161b22"/></g><g><title>2026-06-06: awaiting data</title><rect x="609" y="194" width="13" height="13" rx="3" fill="#161b22"/></g><g><title>2026-06-07: awaiting data</title><rect x="625" y="98" width="13" height="13" rx="3" fill="#161b22"/></g><g><title>2026-06-08: awaiting data</title><rect x="625" y="114" width="13" height="13" rx="3" fill="#161b22"/></g><g><title>2026-06-09: awaiting data</title><rect x="625" y="130" width="13" height="13" rx="3" fill="#161b22"/></g><g><title>2026-06-10: awaiting data</title><rect x="625" y="146" width="13" height="13" rx="3" fill="#161b22"/></g><g><title>2026-06-11: awaiting data</title><rect x="625" y="162" width="13" height="13" rx="3" fill="#161b22"/></g><g><title>2026-06-12: awaiting data</title><rect x="625" y="178" width="13" height="13" rx="3" fill="#161b22"/></g><g><title>2026-06-13: awaiting data</title><rect x="625" y="194" width="13" height="13" rx="3" fill="#161b22"/></g><g><title>2026-06-14: awaiting data</title><rect x="641" y="98" width="13" height="13" rx="3" fill="#161b22"/></g><g><title>2026-06-15: awaiting data</title><rect x="641" y="114" width="13" height="13" rx="3" fill="#161b22"/></g><g><title>2026-06-16: awaiting data</title><rect x="641" y="130" width="13" height="13" rx="3" fill="#161b22"/></g><g><title>2026-06-17: awaiting data</title><rect x="641" y="146" width="13" height="13" rx="3" fill="#161b22"/></g><g><title>2026-06-18: awaiting data</title><rect x="641" y="162" width="13" height="13" rx="3" fill="#161b22"/></g><g><title>2026-06-19: awaiting data</title><rect x="641" y="178" width="13" height="13" rx="3" fill="#161b22"/></g><g><title>2026-06-20: awaiting data</title><rect x="641" y="194" width="13" height="13" rx="3" fill="#161b22"/></g><g><title>2026-06-21: awaiting data</title><rect x="657" y="98" width="13" height="13" rx="3" fill="#161b22"/></g><g><title>2026-06-22: awaiting data</title><rect x="657" y="114" width="13" height="13" rx="3" fill="#161b22"/></g><g><title>2026-06-23: awaiting data</title><rect x="657" y="130" width="13" height="13" rx="3" fill="#161b22"/></g><g><title>2026-06-24: awaiting data</title><rect x="657" y="146" width="13" height="13" rx="3" fill="#161b22"/></g><g><title>2026-06-25: awaiting data</title><rect x="657" y="162" width="13" height="13" rx="3" fill="#161b22"/></g><g><title>2026-06-26: awaiting data</title><rect x="657" y="178" width="13" height="13" rx="3" fill="#161b22"/></g><g><title>2026-06-27: awaiting data</title><rect x="657" y="194" width="13" height="13" rx="3" fill="#161b22"/></g><g><title>2026-06-28: awaiting data</title><rect x="673" y="98" width="13" height="13" rx="3" fill="#161b22"/></g><g><title>2026-06-29: awaiting data</title><rect x="673" y="114" width="13" height="13" rx="3" fill="#161b22"/></g><g><title>2026-06-30: awaiting data</title><rect x="673" y="130" width="13" height="13" rx="3" fill="#161b22"/></g><text x="673" y="87" font-size="11" fill="#8b949e" font-weight="400">Jul</text><g><title>2026-07-01: awaiting data</title><rect x="673" y="146" width="13" height="13" rx="3" fill="#161b22"/></g><g><title>2026-07-02: awaiting data</title><rect x="673" y="162" width="13" height="13" rx="3" fill="#161b22"/></g><g><title>2026-07-03: awaiting data</title><rect x="673" y="178" width="13" height="13" rx="3" fill="#161b22"/></g><g><title>2026-07-04: awaiting data</title><rect x="673" y="194" width="13" height="13" rx="3" fill="#161b22"/></g><g><title>2026-07-05: awaiting data</title><rect x="689" y="98" width="13" height="13" rx="3" fill="#161b22"/></g><g><title>2026-07-06: awaiting data</title><rect x="689" y="114" width="13" height="13" rx="3" fill="#161b22"/></g><g><title>2026-07-07: awaiting data</title><rect x="689" y="130" width="13" height="13" rx="3" fill="#161b22"/></g><g><title>2026-07-08: awaiting data</title><rect x="689" y="146" width="13" height="13" rx="3" fill="#161b22"/></g><g><title>2026-07-09: awaiting data</title><rect x="689" y="162" width="13" height="13" rx="3" fill="#161b22"/></g><g><title>2026-07-10: awaiting data</title><rect x="689" y="178" width="13" height="13" rx="3" fill="#161b22"/></g><g><title>2026-07-11: awaiting data</title><rect x="689" y="194" width="13" height="13" rx="3" fill="#161b22"/></g><g><title>2026-07-12: awaiting data</title><rect x="705" y="98" width="13" height="13" rx="3" fill="#161b22"/></g><g><title>2026-07-13: awaiting data</title><rect x="705" y="114" width="13" height="13" rx="3" fill="#161b22"/></g><g><title>2026-07-14: awaiting data</title><rect x="705" y="130" width="13" height="13" rx="3" fill="#161b22"/></g><g><title>2026-07-15: awaiting data</title><rect x="705" y="146" width="13" height="13" rx="3" fill="#161b22"/></g><g><title>2026-07-16: awaiting data</title><rect x="705" y="162" width="13" height="13" rx="3" fill="#161b22"/></g><g><title>2026-07-17: awaiting data</title><rect x="705" y="178" width="13" height="13" rx="3" fill="#161b22"/></g><g><title>2026-07-18: awaiting data</title><rect x="705" y="194" width="13" height="13" rx="3" fill="#161b22"/></g><g><title>2026-07-19: awaiting data</title><rect x="721" y="98" width="13" height="13" rx="3" fill="#161b22"/></g><g><title>2026-07-20: awaiting data</title><rect x="721" y="114" width="13" height="13" rx="3" fill="#161b22"/></g><g><title>2026-07-21: awaiting data</title><rect x="721" y="130" width="13" height="13" rx="3" fill="#161b22"/></g><g><title>2026-07-22: awaiting data</title><rect x="721" y="146" width="13" height="13" rx="3" fill="#161b22"/></g><g><title>2026-07-23: awaiting data</title><rect x="721" y="162" width="13" height="13" rx="3" fill="#161b22"/></g><g><title>2026-07-24: awaiting data</title><rect x="721" y="178" width="13" height="13" rx="3" fill="#161b22"/></g><g><title>2026-07-25: awaiting data</title><rect x="721" y="194" width="13" height="13" rx="3" fill="#161b22"/></g><g><title>2026-07-26: awaiting data</title><rect x="737" y="98" width="13" height="13" rx="3" fill="#161b22"/></g><g><title>2026-07-27: awaiting data</title><rect x="737" y="114" width="13" height="13" rx="3" fill="#161b22"/></g><g><title>2026-07-28: awaiting data</title><rect x="737" y="130" width="13" height="13" rx="3" fill="#161b22"/></g><g><title>2026-07-29: awaiting data</title><rect x="737" y="146" width="13" height="13" rx="3" fill="#161b22"/></g><g><title>2026-07-30: awaiting data</title><rect x="737" y="162" width="13" height="13" rx="3" fill="#161b22"/></g><g><title>2026-07-31: awaiting data</title><rect x="737" y="178" width="13" height="13" rx="3" fill="#161b22"/></g><text x="737" y="87" font-size="11" fill="#8b949e" font-weight="400">Aug</text><g><title>2026-08-01: awaiting data</title><rect x="737" y="194" width="13" height="13" rx="3" fill="#161b22"/></g><g><title>2026-08-02: awaiting data</title><rect x="753" y="98" width="13" height="13" rx="3" fill="#161b22"/></g><g><title>2026-08-03: awaiting data</title><rect x="753" y="114" width="13" height="13" rx="3" fill="#161b22"/></g><g><title>2026-08-04: awaiting data</title><rect x="753" y="130" width="13" height="13" rx="3" fill="#161b22"/></g><g><title>2026-08-05: awaiting data</title><rect x="753" y="146" width="13" height="13" rx="3" fill="#161b22"/></g><g><title>2026-08-06: awaiting data</title><rect x="753" y="162" width="13" height="13" rx="3" fill="#161b22"/></g><g><title>2026-08-07: awaiting data</title><rect x="753" y="178" width="13" height="13" rx="3" fill="#161b22"/></g><g><title>2026-08-08: awaiting data</title><rect x="753" y="194" width="13" height="13" rx="3" fill="#161b22"/></g><g><title>2026-08-09: awaiting data</title><rect x="769" y="98" width="13" height="13" rx="3" fill="#161b22"/></g><g><title>2026-08-10: awaiting data</title><rect x="769" y="114" width="13" height="13" rx="3" fill="#161b22"/></g><g><title>2026-08-11: awaiting data</title><rect x="769" y="130" width="13" height="13" rx="3" fill="#161b22"/></g><g><title>2026-08-12: awaiting data</title><rect x="769" y="146" width="13" height="13" rx="3" fill="#161b22"/></g><g><title>2026-08-13: awaiting data</title><rect x="769" y="162" width="13" height="13" rx="3" fill="#161b22"/></g><g><title>2026-08-14: awaiting data</title><rect x="769" y="178" width="13" height="13" rx="3" fill="#161b22"/></g><g><title>2026-08-15: awaiting data</title><rect x="769" y="194" width="13" height="13" rx="3" fill="#161b22"/></g><g><title>2026-08-16: awaiting data</title><rect x="785" y="98" width="13" height="13" rx="3" fill="#161b22"/></g><g><title>2026-08-17: awaiting data</title><rect x="785" y="114" width="13" height="13" rx="3" fill="#161b22"/></g><g><title>2026-08-18: awaiting data</title><rect x="785" y="130" width="13" height="13" rx="3" fill="#161b22"/></g><g><title>2026-08-19: awaiting data</title><rect x="785" y="146" width="13" height="13" rx="3" fill="#161b22"/></g><g><title>2026-08-20: awaiting data</title><rect x="785" y="162" width="13" height="13" rx="3" fill="#161b22"/></g><g><title>2026-08-21: awaiting data</title><rect x="785" y="178" width="13" height="13" rx="3" fill="#161b22"/></g><g><title>2026-08-22: awaiting data</title><rect x="785" y="194" width="13" height="13" rx="3" fill="#161b22"/></g><g><title>2026-08-23: awaiting data</title><rect x="801" y="98" width="13" height="13" rx="3" fill="#161b22"/></g><g><title>2026-08-24: awaiting data</title><rect x="801" y="114" width="13" height="13" rx="3" fill="#161b22"/></g><g><title>2026-08-25: awaiting data</title><rect x="801" y="130" width="13" height="13" rx="3" fill="#161b22"/></g><g><title>2026-08-26: awaiting data</title><rect x="801" y="146" width="13" height="13" rx="3" fill="#161b22"/></g><g><title>2026-08-27: awaiting data</title><rect x="801" y="162" width="13" height="13" rx="3" fill="#161b22"/></g><g><title>2026-08-28: awaiting data</title><rect x="801" y="178" width="13" height="13" rx="3" fill="#161b22"/></g><g><title>2026-08-29: awaiting data</title><rect x="801" y="194" width="13" height="13" rx="3" fill="#161b22"/></g><g><title>2026-08-30: awaiting data</title><rect x="817" y="98" width="13" height="13" rx="3" fill="#161b22"/></g><g><title>2026-08-31: awaiting data</title><rect x="817" y="114" width="13" height="13" rx="3" fill="#161b22"/></g><text x="817" y="87" font-size="11" fill="#8b949e" font-weight="400">Sep</text><g><title>2026-09-01: awaiting data</title><rect x="817" y="130" width="13" height="13" rx="3" fill="#161b22"/></g><g><title>2026-09-02: awaiting data</title><rect x="817" y="146" width="13" height="13" rx="3" fill="#161b22"/></g><g><title>2026-09-03: awaiting data</title><rect x="817" y="162" width="13" height="13" rx="3" fill="#161b22"/></g><g><title>2026-09-04: awaiting data</title><rect x="817" y="178" width="13" height="13" rx="3" fill="#161b22"/></g><g><title>2026-09-05: awaiting data</title><rect x="817" y="194" width="13" height="13" rx="3" fill="#161b22"/></g><g><title>2026-09-06: awaiting data</title><rect x="833" y="98" width="13" height="13" rx="3" fill="#161b22"/></g><g><title>2026-09-07: awaiting data</title><rect x="833" y="114" width="13" height="13" rx="3" fill="#161b22"/></g><g><title>2026-09-08: awaiting data</title><rect x="833" y="130" width="13" height="13" rx="3" fill="#161b22"/></g><g><title>2026-09-09: awaiting data</title><rect x="833" y="146" width="13" height="13" rx="3" fill="#161b22"/></g><g><title>2026-09-10: awaiting data</title><rect x="833" y="162" width="13" height="13" rx="3" fill="#161b22"/></g><g><title>2026-09-11: awaiting data</title><rect x="833" y="178" width="13" height="13" rx="3" fill="#161b22"/></g><g><title>2026-09-12: awaiting data</title><rect x="833" y="194" width="13" height="13" rx="3" fill="#161b22"/></g><g><title>2026-09-13: awaiting data</title><rect x="849" y="98" width="13" height="13" rx="3" fill="#161b22"/></g><g><title>2026-09-14: awaiting data</title><rect x="849" y="114" width="13" height="13" rx="3" fill="#161b22"/></g><g><title>2026-09-15: awaiting data</title><rect x="849" y="130" width="13" height="13" rx="3" fill="#161b22"/></g><g><title>2026-09-16: awaiting data</title><rect x="849" y="146" width="13" height="13" rx="3" fill="#161b22"/></g><g><title>2026-09-17: awaiting data</title><rect x="849" y="162" width="13" height="13" rx="3" fill="#161b22"/></g><g><title>2026-09-18: awaiting data</title><rect x="849" y="178" width="13" height="13" rx="3" fill="#161b22"/></g><g><title>2026-09-19: awaiting data</title><rect x="849" y="194" width="13" height="13" rx="3" fill="#161b22"/></g><g><title>2026-09-20: awaiting data</title><rect x="865" y="98" width="13" height="13" rx="3" fill="#161b22"/></g><g><title>2026-09-21: awaiting data</title><rect x="865" y="114" width="13" height="13" rx="3" fill="#161b22"/></g><g><title>2026-09-22: awaiting data</title><rect x="865" y="130" width="13" height="13" rx="3" fill="#161b22"/></g><g><title>2026-09-23: awaiting data</title><rect x="865" y="146" width="13" height="13" rx="3" fill="#161b22"/></g><g><title>2026-09-24: awaiting data</title><rect x="865" y="162" width="13" height="13" rx="3" fill="#161b22"/></g><g><title>2026-09-25: awaiting data</title><rect x="865" y="178" width="13" height="13" rx="3" fill="#161b22"/></g><g><title>2026-09-26: awaiting data</title><rect x="865" y="194" width="13" height="13" rx="3" fill="#161b22"/></g><g><title>2026-09-27: awaiting data</title><rect x="881" y="98" width="13" height="13" rx="3" fill="#161b22"/></g><g><title>2026-09-28: awaiting data</title><rect x="881" y="114" width="13" height="13" rx="3" fill="#161b22"/></g><g><title>2026-09-29: awaiting data</title><rect x="881" y="130" width="13" height="13" rx="3" fill="#161b22"/></g><g><title>2026-09-30: awaiting data</title><rect x="881" y="146" width="13" height="13" rx="3" fill="#161b22"/></g><text x="881" y="87" font-size="11" fill="#8b949e" font-weight="400">Oct</text><g><title>2026-10-01: awaiting data</title><rect x="881" y="162" width="13" height="13" rx="3" fill="#161b22"/></g><g><title>2026-10-02: awaiting data</title><rect x="881" y="178" width="13" height="13" rx="3" fill="#161b22"/></g><g><title>2026-10-03: awaiting data</title><rect x="881" y="194" width="13" height="13" rx="3" fill="#161b22"/></g><g><title>2026-10-04: awaiting data</title><rect x="897" y="98" width="13" height="13" rx="3" fill="#161b22"/></g><g><title>2026-10-05: awaiting data</title><rect x="897" y="114" width="13" height="13" rx="3" fill="#161b22"/></g><text x="30" y="124" font-size="11" fill="#8b949e" font-weight="400">Mon</text><text x="30" y="156" font-size="11" fill="#8b949e" font-weight="400">Wed</text><text x="30" y="188" font-size="11" fill="#8b949e" font-weight="400">Fri</text><text x="30" y="233" font-size="12" fill="#8b949e" font-weight="400">Commits, pull requests, issues and other contributions counted by GitHub.</text></g></svg>
